<?xml version="1.0" encoding="utf-8"?>
<!-- Generator: Adobe Illustrator 21.0.0, SVG Export Plug-In . SVG Version: 6.00 Build 0)  -->
<svg version="1.1" id="图层_1" xmlns="http://www.w3.org/2000/svg" xmlns:xlink="http://www.w3.org/1999/xlink" x="0px" y="0px"
	 viewBox="0 0 184.7 180" style="enable-background:new 0 0 184.7 180;" xml:space="preserve">
<style type="text/css">
	.st0{display:none;}
	.st1{display:inline;}
	.st2{fill:#EFAC1F;}
	.st3{fill:#274185;}
</style>
<g id="图层_1_1_" class="st0">
	<g class="st1">
		<path class="st2" d="M90,180c49.7,0,90.2-40.3,90.2-90c0-47.5-36.8-86.5-83.4-90v13.9c39,3.4,69.7,36.2,69.6,76.1
			c0,42.1-34.3,76.3-76.4,76.2c-42.1,0-76.3-34.3-76.2-76.4C13.8,50.5,43.7,18.1,82,14V0.1C36.1,4.2,0,42.8,0,89.8
			C-0.1,139.4,40.3,179.9,90,180z"/>
		<path class="st2" d="M68.6,94.4c-4.1,0-7.5,3.3-7.5,7.5v21c0,16.2,13.2,29.4,29.5,29.4s29.5-13.2,29.5-29.4v-21
			c0-4.1-3.3-7.5-7.5-7.5c-4.1,0-7.5,3.3-7.5,7.5v2.8h-7.3V83c13.6-3,24.7-13.9,28.4-28.4c1.2-4.7-1.7-9.4-6.3-10.6
			c-4.7-1.2-9.4,1.7-10.6,6.3c-2.3,9.5-10.2,16.1-19,16.1c-9.4,0-17.1-6.3-19.3-15.7c-1.1-4.7-5.8-7.6-10.4-6.5
			c-4.7,1.1-7.6,5.8-6.5,10.4c3.4,14.7,14.8,25.6,29,28.5v21.6h-6.9v-2.8C76,97.7,72.7,94.4,68.6,94.4z M105.2,119.6v3.3
			c0,8-6.5,14.5-14.6,14.5S76,130.9,76,122.9v-3.3H105.2z"/>
		<circle class="st2" cx="90.2" cy="47.2" r="12"/>
	</g>
	<g class="st1">
		<path class="st3" d="M217.3,162.9l12.9-31.1h5l12.9,31.1h-4.5l-3.7-8.9h-14.4l-3.7,8.9H217.3z M232.7,135.8l-6.2,15.4h12.3
			L232.7,135.8z"/>
		<path class="st3" d="M273.8,162.9l-10.7-13.3h-7.9v13.3h-4.3v-31.1h15c7.1,0.1,10.8,3.1,10.9,9.1c0.1,5.3-2.8,8.2-8.8,8.6l11,13.3
			L273.8,162.9L273.8,162.9z M255.1,134.6v12.3h9.5c5.3,0.2,7.8-1.8,7.6-6c0-4.2-2.5-6.3-7.6-6.3H255.1z"/>
		<path class="st3" d="M281.5,162.9V132h13.8c6.7,0,10.1,2.5,10,7.5c0.1,3.8-1.8,6.3-5.7,7.3c4.7,1,7.1,3.5,7.2,7.5
			c0.2,5.9-3.5,8.7-11.1,8.6L281.5,162.9L281.5,162.9z M285.8,134.6v10.9h8.4c4.6,0,6.9-1.9,6.9-5.6c0.1-3.6-2.2-5.4-7-5.3
			L285.8,134.6L285.8,134.6z M294.3,148.4h-8.5v12h9.2c5,0.1,7.4-1.9,7.3-5.9C302.4,150.5,299.7,148.4,294.3,148.4z"/>
		<path class="st3" d="M310.7,162.9v-31.1h23.9v2.8H315v11h18.5v2.8H315v12h19.6v2.5H310.7z"/>
		<path class="st3" d="M336.8,162.8l12.3-15.7L338,131.9h5l9.1,12.9l8.9-12.9h5.1l-11.3,15.2l12.3,15.7h-5.3l-9.8-13.2l-10.1,13.2
			H336.8z"/>
		<path class="st3" d="M370.2,162.8v-30.9h13.6c7,0.2,10.7,3.3,10.8,9.4c0.1,6.6-3.6,9.8-11.1,9.7h-9.2v11.9L370.2,162.8
			L370.2,162.8z M374.3,134.6v13.6h8.4c5.3,0.2,7.8-2.1,7.6-7c0-4.4-2.5-6.6-7.6-6.6H374.3z"/>
		<path class="st3" d="M421.6,162.9l-10.7-13.3H403v13.3h-4.3v-31.1h15c7.1,0.1,10.8,3.1,10.9,9.1c0.1,5.3-2.8,8.2-8.8,8.6l11,13.3
			L421.6,162.9L421.6,162.9z M402.9,134.6v12.3h9.5c5.3,0.2,7.8-1.8,7.6-6c0-4.2-2.5-6.3-7.6-6.3H402.9z"/>
		<path class="st3" d="M429.6,162.9v-31.1h23.9v2.8h-19.6v11h18.5v2.8h-18.5v12h19.6v2.5H429.6z"/>
		<path class="st3" d="M456.2,156.9v-3.7c3.1,5,7.5,7.5,13,7.5c5.4,0,8.1-2,8.2-5.9c0-3.4-2.8-5.5-8.5-6.2
			c-8.2-1.2-12.1-4.2-11.7-8.9c0.3-5.3,4.1-8,11.4-8.2c7,0,11.2,3,12.5,8.9h-4.3c-1.2-4.1-3.9-6.2-8.2-6.3c-4.6,0.1-6.9,2-7,5.6
			c-0.3,2.9,2.3,4.8,7.9,5.6c8.3,1.4,12.4,4.4,12.3,9.2c-0.1,5.8-4.2,8.7-12.2,8.8C463.7,163.5,459.2,161.3,456.2,156.9z"/>
		<path class="st3" d="M484,156.9v-3.7c3.1,5,7.5,7.5,13,7.5c5.4,0,8.1-2,8.2-5.9c0-3.4-2.8-5.5-8.5-6.2c-8.2-1.2-12.1-4.2-11.7-8.9
			c0.3-5.3,4.1-8,11.4-8.2c7,0,11.2,3,12.5,8.9h-4.2c-1.2-4.1-3.9-6.2-8.2-6.3c-4.6,0.1-6.9,2-7,5.6c-0.3,2.9,2.3,4.8,7.9,5.6
			c8.3,1.4,12.4,4.4,12.3,9.2c-0.1,5.8-4.2,8.7-12.2,8.8C491.6,163.5,487.1,161.3,484,156.9z"/>
		<path class="st3" d="M512.2,161.7v-4.5h4.8v4.5H512.2z"/>
		<path class="st3" d="M547.5,141.1h-4.3c-1.2-4.5-4.1-6.8-8.8-6.9c-6.7,0.6-10.2,5.1-10.6,13.5c0.3,8.3,4.1,12.7,11.4,13.1
			c5.3,0,9.4-2.7,12.3-8.1v4c-2.6,4.6-7.1,6.8-13.3,6.7c-9.4-0.6-14.3-5.8-14.8-15.7c0.5-10.3,5.4-15.7,14.8-16.3
			C541.3,131.6,545.7,134.8,547.5,141.1z"/>
		<path class="st3" d="M551.6,162.9v-31.1h4.3l17.9,25.2v-25.2h4.1v31.1h-4.1L555.9,138v24.9H551.6z"/>
	</g>
	<g class="st1">
		<path class="st3" d="M255.5,26.4c0,1-1.1,3.2-3.4,6.5c-2.3,3.3-4.8,6.5-7.6,9.6c-1.2,1.3-1.8,3.4-1.8,6.3l0.1,14.1
			c0,18.2-0.7,31.7-2.2,40.4c-0.6,3.5-1,7.2-1.1,11c-0.1,1.3-0.4,1.9-1.1,1.9c-1.1,0-2.4-1.9-4.2-5.6c-1.7-3.7-2.6-8.1-2.6-13.1
			c0-1.7,0.2-4.1,0.5-7.2c0.3-3.2,0.5-7.2,0.5-12.1s-0.1-9.4-0.3-13.5s-0.4-6.6-0.7-7.6s1.5-1.2,0.7-1.6c-0.7-0.4,1.4-13.2-1.8-7.7
			c-1.9,3.4-10,5.8-11.6,4.1s-2.8-5.4-3.5-10.9c-0.3-2.2-0.7-3.4-1.2-3.6c-0.9-0.5-1.3-1-1.3-1.5s0.5-0.8,1.6-0.9
			c1.1-0.1,5.8-1.9,14-5.4c8.3-3.5,12.9-5.7,13.8-6.7c1-1,2.5-1.5,4.7-1.5s4.1,0.6,5.8,1.7C254.6,24.4,255.5,25.4,255.5,26.4z
			 M327.1,33.6c0.8,0,1.5,0.4,2.2,1.1c0.7,0.7,1.1,1.7,1.1,2.8s-0.9,3.2-2.6,6.3c-1.8,3.1-3.4,7.1-5.1,12.2
			c-1.6,5.1-2.4,7.9-2.4,8.6s0.2,1.3,0.6,1.9s0.6,1.2,0.6,2s-0.2,2.1-0.7,4c-0.4,1.9-1.6,3-3.6,3.6c-2,0.5-3.9,0.8-5.9,0.8
			c-1.9,0-3.8-0.1-5.7-0.4c-1.9-0.3-3.3-0.4-4.3-0.4c-2.3,0-3.8,0.9-4.4,2.7c-0.7,1.8-1,6.5-1,13.9c0,7.5-0.1,12.7-0.3,15.5
			c-0.2,2.9-0.5,4.9-1.1,6c-0.5,1.1-1.6,2.1-3.3,3.1c-1.7,0.9-2.9,1.4-3.7,1.4c-0.8,0-1.3-0.8-1.4-2.5c-0.2-1.7-0.3-8.1-0.3-19.2
			l0.1-16.2c0-2-0.7-3.1-2-3.1s-4.4,0.7-9.3,1.9c-4.9,1.3-8.6,2.9-11.1,4.7c-2.5,1.8-5.1,2.7-7.7,2.7c-1.4,0-2.8-0.4-4.1-1.1
			s-2-1.5-2-2.2s0.5-1.9,1.4-3.5s2-3,3.1-4c1.1-1.1,2-2.2,2.4-3.3c0.5-1.2,1-3.5,1.5-6.9s0.8-6.9,0.8-10.4s-0.5-5.5-1.6-6.2
			s-2.1-1.7-3.1-3.3c-1-1.5-1.5-3-1.5-4.5s1.1-2.5,3.2-3c2.2-0.5,3.8-1,4.9-1.3c6.2-2.1,13.5-3.8,22.2-4.9c0.8-0.1,1.6-0.5,2.4-1.1
			s1.3-1.3,1.4-2.1c0.4-3.2,1.1-5.8,2-7.9s2.3-12.4,3.5-12.4s2,10.2,3,12.1c0.9,1.9,1.4,4.4,1.5,7.6c0,1.9,1.1,2.8,3.2,2.8
			c8.2,0,13.9,0.7,17.1,1.9c2.1,0.8,4,1.3,5.6,1.3s2.6-0.2,3-0.5S326.7,33.6,327.1,33.6z M269.8,66.5c0.3,0,1.2-0.3,2.8-0.9
			c1.6-0.6,3.9-1.2,6.8-1.8c2.9-0.6,4.7-1.2,5.4-1.8c0.7-0.6,1.2-1.9,1.5-3.8c0.3-1.9,0.5-4.5,0.5-7.9c0-1.9-0.5-2.9-1.5-2.9
			s-3.5,0.6-7.5,1.8s-6.5,2-7.4,2.4s-1.5,1.1-1.8,1.9c-0.3,0.9-0.5,2.7-0.5,5.4s0.1,4.6,0.3,5.8C268.7,65.9,269.1,66.5,269.8,66.5z
			 M308.9,61.8c1.1,0,2-0.3,2.6-0.8c0.6-0.6,1.3-2.3,2.2-5.2c0.9-2.9,1.3-5,1.3-6.3s-0.4-2.1-1.1-2.6s-2.4-0.9-4.8-1.2
			c-2.5-0.3-4.8-0.4-7-0.4s-3.6,0.1-4.2,0.3s-1,0.8-1.3,1.8s-0.5,3.1-0.5,6.3c0,3.3,0.3,5.4,0.9,6.3c0.6,1,1.9,1.5,3.8,1.5
			c2.9,0,4.8,0,5.8,0.1C307.6,61.7,308.3,61.8,308.9,61.8z"/>
		<path class="st3" d="M378.4,51.8c0,0.2-0.2,1.4-0.7,3.6c-0.4,2.2-0.7,4.2-0.8,5.9c-0.1,1.7-0.1,4.5-0.1,8.4s-0.5,2.8-1.4,9.4
			s-2.3,11.9-4.2,16c-1.8,4-3.6,6.9-5.1,8.6c-1.6,1.7-3.7,3.7-6.4,5.9c-2.7,2.2-5.1,3.3-7.1,3.3c-2.1,0-3.9-1.5-5.6-4.4
			s-2.5-6.8-2.5-11.8c0-2.2,0.3-3.3,1.1-3.3c0.3,0,0.6,0.2,0.8,0.7c0.7,2,1.7,2.9,3,2.9s4-1.3,8.2-4c4.1-2.7,7.3-8.5,9.4-17.6
			c2.1-9,3.2-8.8,3.2-11.9s-0.4-5-1.1-5.7s-1.1-1.5-1.1-2.4s0.9-2.1,2.8-3.6s3.6-2.3,5.1-2.3C377.5,49.5,378.4,50.3,378.4,51.8z
			 M403,30.7c0,2.4-0.9,4.6-2.7,6.5c-1.8,2-3.2,5.1-4.2,9.3c-1,4.3-2,10.9-2.8,19.9c-0.1,1.1-0.5,2.8-1.1,5.2
			c-0.7,2.3-1.3,4.3-1.9,5.8s-0.9,2.8-0.9,3.9s-0.2,1.9-0.7,2.5c-0.4,0.6-0.8,0.9-1.2,0.9c-0.4,0-0.7-0.3-1.1-0.9s-0.5-1.2-0.4-1.7
			c0.5-1.9,0.8-3.3,0.8-4.3s-0.1-2.1-0.3-3.1c-0.2-1.1-0.3-3.5-0.3-7.2c0-3.8,0.2-7.9,0.5-12.5s0.7-7.7,1.1-9.2s0.6-2.9,0.6-4.1
			c0-1.2-0.5-2.2-1.4-2.9s-2.9-1.1-6.1-1.1c-3.1,0-6.4,0.4-10,1.3c-3.5,0.8-6,1.5-7.3,2c-1.4,0.5-2.4,1.7-3.2,3.5
			c-0.7,1.8-1.2,4.5-1.3,8c-0.2,9.3-0.4,15.7-0.8,19.2s-1,6.2-2,8.1s-1.5,4.2-1.5,6.9c0,0.9-0.2,1.7-0.6,2.3
			c-0.4,0.6-0.9,0.9-1.4,0.9c-1.4,0-2.1-1.5-2.1-4.5s0.1-6.8,0.4-11.4s0.4-9.2,0.4-13.8s-0.3-8.7-0.9-12.3s-1.8-7.2-3.6-10.9
			c-1.8-3.6-2.6-6.5-2.6-8.5c0-2.4,0.9-3.4,2.8-3.1c1.8,0.4,3.6,0.6,5.3,0.6c6,0,14.1-0.7,24.4-2.2c3.2-0.5,5.7-0.7,7.6-0.7
			s3.6,0.3,5.1,0.8s3.4,0.8,5.7,0.8l2.2-0.3c1.4,0,2.6,0.7,3.6,1.9C402.5,27.4,403,28.9,403,30.7z M379.5,85.9
			c0.3,0,0.5,0.1,0.8,0.3c1.7,1.3,3,1.9,4.1,1.9c2.5,0,4.8,1,7.1,2.9c2.3,1.9,3.4,4,3.4,6.3c0,1.4-0.6,2.6-1.7,3.6s-2.3,1.5-3.6,1.5
			c-1.2,0-3-0.8-5.3-2.3s-4.1-3.5-5.3-5.8c-1.3-2.3-1.9-4-1.9-5.2c0-1.1,0.2-2,0.7-2.5C378.4,86.1,378.9,85.9,379.5,85.9z
			 M461.3,33.3c0,0.9-1.4,3.7-4.2,8.4c-2.8,4.7-5.2,8-7.3,9.8c-2.1,1.9-4,2.8-5.7,2.8c-0.5,0-1.1-0.1-1.6-0.3
			c-0.6-0.2-1-0.3-1.4-0.3c-1.4,0-2.1,1.3-2.1,3.9c0,14,0.1,24.9,0.4,32.7s0.4,11.8,0.4,12.1c0,3.6-0.9,6.3-2.6,8.1
			c-1.8,1.8-4.6,2.6-8.6,2.6s-8.6-0.5-13.8-1.6c-5.3-1.1-8.7-1.9-10.4-2.6c-1.7-0.7-2.5-1.3-2.5-2.1c0-0.7,0.7-1.2,2-1.3
			c7.6-0.6,13.2-1.1,16.7-1.7s5.9-1.3,7.2-2.1c1.3-0.8,2.2-2.2,2.6-4s0.9-5,1.3-9.7c0.4-4.6,0.6-9,0.6-13c0-2.4-0.4-3.6-1.2-3.6
			c-1.5,0-7.6,4.4-18.2,13.1c-2.1,1.8-4.4,2.6-6.7,2.6c-3.3,0-5.6-1.6-6.9-4.7c-0.8-1.9-1.3-3.2-1.6-3.7c-0.3-0.5-0.8-0.9-1.5-1.3
			c-0.7-0.3-1.1-0.6-1.1-0.9s0.7-0.4,2.2-0.4s4.9-1.3,10.3-4s10.5-5.6,15.4-8.7c4.8-3.1,7.7-5.2,8.6-6.2s1.3-2.2,1.3-3.6
			c0-1.3-1.4-2-4.2-2c-2.8,0-6.6,0.6-11.4,1.8s-8.1,1.8-10,1.8c-4.3,0-6.5-2.4-6.5-7.2c0-2,0.4-3.7,1.1-4.9c0.7-1.3,1.4-1.9,1.9-1.9
			s0.9,0.1,1.2,0.3c0.3,0.2,0.9,0.3,1.8,0.3c1,0,2.5-0.4,4.5-1.1c3.3-1.2,8.8-2.2,16.7-3.1c2.1-0.3,3.4-0.7,3.9-1.3s0.8-1.7,0.9-3.4
			c0.4-6.6,1.5-14.9,3.4-14.9c1,0,1.8,0.7,2.5,2c0.7,1.4,1,7.7,0.8,9c-0.2,1.3-0.3,2.9-0.3,4.8c0,0.7,0.4,1.4,1.1,2.2
			s1.8,1.3,3.2,1.3c1.4,0,2.8-0.2,4.2-0.6c1.4-0.4,3.2-0.6,5.3-0.8c2.2-0.1,3.9-0.8,5.2-2c1.3-1.2,2.2-1.8,2.5-1.8
			C461.1,32.6,461.3,32.9,461.3,33.3z"/>
		<path class="st3" d="M593.6,98.8c0,0.5-0.5,1.4-1.5,2.7c-1,1.4-3.6,3.8-7.8,7.5c-4.2,3.6-7.2,5.9-8.9,7c-1.7,1-3.9,1.5-6.7,1.5
			c-4.7,0-10.2-1.7-16.5-5.2c-15.6-8.5-29.7-12.8-42.3-12.8c-12.5,0-21.1-0.1-25.8-0.4c-4.7-0.3-7.6-0.8-8.7-1.5s-1.6-2.2-1.6-4.5
			c0-2.2,0.9-3.6,2.8-4.2s5.4-2.4,10.5-5.4c5.1-3.1,10.1-6.4,14.9-9.9c1-0.7,1.8-1,2.5-1s1.1,0.5,1.1,1.5s-0.3,2-0.9,3
			s-1.7,2.6-3.5,4.6s-3,3.3-3.8,3.9c-0.7,0.6-1.1,1.1-1.1,1.5c0,0.8,1,1.3,3,1.3c1,0,2.1-0.1,3.5-0.4s3-0.4,4.8-0.4l6.9,0.4
			c1.1,0,1.9-0.5,2.5-1.4s1.5-4.5,2.6-10.6s1.6-11.8,1.6-17c0-7.5-1-12.4-3-14.8c-0.9-1-1.3-1.9-1.3-2.5c0-1.4,1.4-2.1,4.4-2.1
			l6.5,0.3c0.8,0,2.1-0.2,3.9-0.5c1.8-0.3,2.8-0.6,3.1-0.7c0.3-0.1,0.4-0.4,0.4-0.8c0-0.7-0.8-1.7-2.4-3.2c-1.6-1.5-3.1-2.2-4.4-2.2
			c-0.2,0-0.5,0-0.9,0.1c-1.9,0.3-4.1,0.4-6.4,0.4c-2.3,0-4.3-0.8-5.8-2.3s-2.3-3.1-2.3-4.6s0.3-2.7,0.8-3.4
			c0.5-0.7,1.1-1.1,1.8-1.1s1.3,0.2,1.7,0.7s1,0.7,1.7,0.7s1.7-0.2,3-0.7c5.9-1.8,13.6-2.6,23.1-2.6c6.3,0,10.5,0.4,12.5,1.3
			c0.7,0.3,2.5,0.4,5.3,0.4s5.3-0.1,7.5-0.3c2.2-0.2,4-0.3,5.3-0.3c2.5,0,3.7,0.7,3.7,2.1c0,0.7-0.5,1.4-1.4,2.3s-2,1.6-3.2,2.1
			s-3.7,1.9-7.3,4.1s-5.7,3.6-6.3,4c-0.5,0.5-0.8,0.9-0.8,1.2s0.9,0.6,2.6,0.9c1.7,0.3,3.3,0.6,4.6,1c1.4,0.4,2.4,0.6,3,0.6
			c0.7,0,1.3-0.2,2-0.5s1.3-0.5,1.8-0.5c1.7,0,2.5,1,2.5,3.1c0,2-0.7,3.9-2,5.4c-3,3.6-4.5,10.9-4.5,21.7c0,1.8-0.2,5-0.7,9.6
			c-0.4,4.6-1,8.5-1.6,11.4c-0.6,3-1.2,4.6-1.8,5s-1.3,0.6-2,0.6c-1.4,0-2.1-1.5-2.1-4.5s0.1-5.7,0.4-8.2l0.4-6.7
			c0-0.7-0.1-1.2-0.4-1.5c-0.3-0.2-1-0.4-2.2-0.6s-3.1-0.3-5.5-0.3s-3.9,0.2-4.5,0.5s-1,1-1.1,1.9c-0.8,6.5-1.5,10.9-2,13.1
			c-0.6,2.2-0.9,3.7-0.9,4.3c0,0.7,0.4,1.1,1.2,1.3c9.4,2.4,15.7,4.9,19,7.4c0.4,0.4,1.3,0.6,2.7,0.6s2.6-0.2,3.6-0.7
			c1.1-0.5,2.9-0.8,5.7-1.1c2.7-0.3,4.5-0.3,5.5-0.2c0.9,0.1,2,0.2,3.1,0.2s2.4-0.3,3.6-0.9c1.3-0.6,2.1-0.9,2.4-0.9
			S593.6,98.5,593.6,98.8z M508,45.7c0,1-2.8,2.9-8.2,5.6c-5.5,2.7-9.9,4-13.3,4c-2,0-3.7-0.4-5-1.3c-1.3-0.8-2-1.9-2-3.1
			c0-1.3,0.3-2.3,1-3.3c0.7-0.9,1.3-1.5,1.8-1.8c0.6-0.3,1.3-0.4,2.3-0.4s1.8-0.1,2.5-0.4c0.7-0.3,3-0.6,7-0.8
			c4-0.3,6.7-0.4,8.2-0.4s2.9,0.2,4,0.6C507.4,44.7,508,45.2,508,45.7z M509.2,31c0,1.7-1.6,2.9-4.8,3.8c-3.2,0.9-6.4,1.3-9.4,1.3
			c-1.8,0-4.2-0.1-6.9-0.4c-2.8-0.3-4.8-1.4-6.1-3.3c-1.3-1.9-1.9-3.6-1.9-5.1s0.3-2.9,0.9-4.2s1.3-1.9,2.1-1.9
			c0.8,0,1.4,0.5,1.6,1.4s0.9,1.4,2.2,1.4c0.5,0,1.1-0.2,1.7-0.5s1.8-0.5,3.6-0.5c1.8,0,3.9,0.4,6.2,1.2c2.3,0.8,4.3,1.8,5.9,3.1
			c1,0.8,2,1.4,3.2,1.5C508.6,29.1,509.2,29.8,509.2,31z M505.3,59.7c0,1.1-1,2.6-3,4.4c-2,1.8-5.2,3.9-9.6,6.3s-7.3,3.6-8.6,3.6
			c-1.3,0-2.4-0.4-3.1-1.1s-1.1-1.7-1.1-2.7c0-1.1,0.3-2,0.9-2.8s1.7-1.3,3.3-1.6c1.6-0.3,3.9-1.2,7-2.8c3.1-1.6,5.4-2.4,7-2.6
			c1.6-0.1,3.2-0.6,4.7-1.5c0.4-0.2,0.9-0.3,1.5-0.3C505.1,58.6,505.3,58.9,505.3,59.7z M541.1,84.9c0-2.9,0.2-5,0.5-6.3
			c0.4-1.3,0.5-2.4,0.5-3.1s-0.3-1.1-0.9-1.1c-0.6,0-3.3,0.5-7.9,1.5c-4.7,1-7.1,1.9-7.5,2.9c-0.3,0.9-0.7,2.4-1.3,4.5
			c-0.5,2.1-0.8,3.6-0.8,4.6s0.4,1.5,1.3,1.6c4.5,0.6,8,1.3,10.6,1.8c2.6,0.6,4,0.8,4.3,0.8s0.6-0.2,0.9-0.6
			c0.3-0.4,0.5-1.1,0.3-2.2C541.1,88.2,541.1,86.7,541.1,84.9z M528.4,69.6c0.2,0,1.4-0.3,3.6-0.8c2.2-0.6,4.9-1.1,8.1-1.5
			c1.3-0.3,2.2-0.8,2.6-1.5c0.4-0.7,0.7-2.1,0.7-4.3c0-1.2-0.4-1.8-1.1-1.8c-0.7,0-2.8,0.4-6.1,1.1c-3.3,0.7-5.5,1.3-6.5,1.7
			c-1.1,0.4-1.7,1-2,2s-0.4,2.1-0.4,3.3C527.4,69,527.7,69.6,528.4,69.6z M530.4,54.2c0.3,0,1.3-0.2,3-0.5c1.8-0.3,4.2-0.6,7.4-0.9
			c1.4-0.2,2.3-0.6,2.8-1.3c0.4-0.6,0.7-1.9,0.7-3.6c0-1.8-0.3-2.6-1-2.6s-2.9,0.4-6.6,1.2c-3.7,0.8-6,1.4-6.8,1.9s-1.2,1.7-1.2,3.6
			C528.7,53.5,529.2,54.2,530.4,54.2z M544.6,37.4c2,0,4-0.8,6.1-2.4c2-1.6,3.9-2.9,5.6-3.9c1.7-1,2.6-1.7,2.6-2.2
			c0-1.1-3.2-1.7-9.5-1.7c-6.9,0-10.4,1-10.4,2.9c0,0.2,0.3,0.7,0.8,1.5c0.5,0.8,1.2,2,2,3.5C542.5,36.6,543.5,37.4,544.6,37.4z
			 M561.9,65.9c1.3,0,2.1-0.6,2.3-1.9s0.3-2.3,0.3-3s-0.2-1.3-0.5-1.5c-0.3-0.3-1.4-0.4-3.3-0.5c-1.9,0-3.8-0.1-5.7-0.1
			s-3.2,0.1-3.9,0.2c-0.7,0.1-1.1,1.1-1.1,2.9c0,1.8,0.2,2.9,0.6,3.3c0.4,0.5,1,0.7,1.7,0.6s2.5-0.1,5.3,0H561.9z M563.9,52.3
			c0.9,0,1.5-0.4,2-1.3c0.4-0.9,0.7-2,0.7-3.4c0-1.3-1-2.1-3-2.5s-4.4-0.6-7.3-0.6c-2.9,0-4.6,0.3-5.1,0.8s-0.8,1.6-0.8,3.1
			s0.2,2.6,0.5,3c0.4,0.4,1,0.6,2,0.6L563.9,52.3z"/>
	</g>
</g>
<g id="图层_1_copy">
	<g>
		<path class="st2" d="M90,180c49.7,0,90.2-40.3,90.2-90c0-47.5-36.8-86.5-83.4-90v13.9c39,3.4,69.7,36.2,69.6,76.1
			c0,42.1-34.3,76.3-76.4,76.2c-42.1,0-76.3-34.3-76.2-76.4C13.8,50.5,43.7,18.1,82,14V0.1C36.1,4.2,0,42.8,0,89.8
			C-0.1,139.4,40.3,179.9,90,180z"/>
		<path class="st2" d="M68.6,94.4c-4.1,0-7.5,3.3-7.5,7.5v21c0,16.2,13.2,29.4,29.5,29.4s29.5-13.2,29.5-29.4v-21
			c0-4.1-3.3-7.5-7.5-7.5c-4.1,0-7.5,3.3-7.5,7.5v2.8h-7.3V83c13.6-3,24.7-13.9,28.4-28.4c1.2-4.7-1.7-9.4-6.3-10.6
			c-4.7-1.2-9.4,1.7-10.6,6.3c-2.3,9.5-10.2,16.1-19,16.1c-9.4,0-17.1-6.3-19.3-15.7c-1.1-4.7-5.8-7.6-10.4-6.5
			c-4.7,1.1-7.6,5.8-6.5,10.4c3.4,14.7,14.8,25.6,29,28.5v21.6h-6.9v-2.8C76,97.7,72.7,94.4,68.6,94.4z M105.2,119.6v3.3
			c0,8-6.5,14.5-14.6,14.5S76,130.9,76,122.9v-3.3H105.2z"/>
		<circle class="st2" cx="90.2" cy="47.2" r="12"/>
	</g>
</g>
</svg>
